<mxfile host="app.diagrams.net" agent="Mozilla/5.0 (Windows NT 10.0; Win64; x64) AppleWebKit/537.36 (KHTML, like Gecko) Chrome/129.0.0.0 Safari/537.36" version="24.7.17">
  <diagram name="Page-1" id="6ll5f_cB6I4i_ygpwUC0">
    <mxGraphModel dx="1502" dy="564" grid="1" gridSize="10" guides="1" tooltips="1" connect="1" arrows="1" fold="1" page="1" pageScale="1" pageWidth="827" pageHeight="1169" math="0" shadow="0">
      <root>
        <mxCell id="0" />
        <mxCell id="1" parent="0" />
        <mxCell id="8GcMY4ZnjwPO1-FeVbG_-1" value="Transaction" style="swimlane;fontStyle=1;align=center;verticalAlign=top;childLayout=stackLayout;horizontal=1;startSize=26;horizontalStack=0;resizeParent=1;resizeParentMax=0;resizeLast=0;collapsible=1;marginBottom=0;whiteSpace=wrap;html=1;" vertex="1" parent="1">
          <mxGeometry x="550" y="330" width="170" height="158" as="geometry" />
        </mxCell>
        <mxCell id="8GcMY4ZnjwPO1-FeVbG_-2" value="+ transactionId: int&lt;div&gt;+ transactionDate date&lt;/div&gt;&lt;div&gt;+ transactionType: string&lt;/div&gt;&lt;div&gt;+ amount double&lt;/div&gt;" style="text;strokeColor=none;fillColor=none;align=left;verticalAlign=top;spacingLeft=4;spacingRight=4;overflow=hidden;rotatable=0;points=[[0,0.5],[1,0.5]];portConstraint=eastwest;whiteSpace=wrap;html=1;" vertex="1" parent="8GcMY4ZnjwPO1-FeVbG_-1">
          <mxGeometry y="26" width="170" height="64" as="geometry" />
        </mxCell>
        <mxCell id="8GcMY4ZnjwPO1-FeVbG_-3" value="" style="line;strokeWidth=1;fillColor=none;align=left;verticalAlign=middle;spacingTop=-1;spacingLeft=3;spacingRight=3;rotatable=0;labelPosition=right;points=[];portConstraint=eastwest;strokeColor=inherit;" vertex="1" parent="8GcMY4ZnjwPO1-FeVbG_-1">
          <mxGeometry y="90" width="170" height="8" as="geometry" />
        </mxCell>
        <mxCell id="8GcMY4ZnjwPO1-FeVbG_-4" value="+ withdrawal() / retrait&lt;div&gt;+ bankTransfert() / virement&lt;/div&gt;&lt;div&gt;+ bankDeposit() / versement&lt;/div&gt;" style="text;strokeColor=none;fillColor=none;align=left;verticalAlign=top;spacingLeft=4;spacingRight=4;overflow=hidden;rotatable=0;points=[[0,0.5],[1,0.5]];portConstraint=eastwest;whiteSpace=wrap;html=1;" vertex="1" parent="8GcMY4ZnjwPO1-FeVbG_-1">
          <mxGeometry y="98" width="170" height="60" as="geometry" />
        </mxCell>
        <mxCell id="8GcMY4ZnjwPO1-FeVbG_-5" value="Customer" style="swimlane;fontStyle=1;align=center;verticalAlign=top;childLayout=stackLayout;horizontal=1;startSize=26;horizontalStack=0;resizeParent=1;resizeParentMax=0;resizeLast=0;collapsible=1;marginBottom=0;whiteSpace=wrap;html=1;" vertex="1" parent="1">
          <mxGeometry x="170" y="10" width="160" height="130" as="geometry" />
        </mxCell>
        <mxCell id="8GcMY4ZnjwPO1-FeVbG_-6" value="+ clientId int&lt;div&gt;+ firstname string&lt;/div&gt;&lt;div&gt;+ lastname string&lt;/div&gt;&lt;div&gt;+ listAccount list&lt;/div&gt;" style="text;strokeColor=none;fillColor=none;align=left;verticalAlign=top;spacingLeft=4;spacingRight=4;overflow=hidden;rotatable=0;points=[[0,0.5],[1,0.5]];portConstraint=eastwest;whiteSpace=wrap;html=1;" vertex="1" parent="8GcMY4ZnjwPO1-FeVbG_-5">
          <mxGeometry y="26" width="160" height="64" as="geometry" />
        </mxCell>
        <mxCell id="8GcMY4ZnjwPO1-FeVbG_-7" value="" style="line;strokeWidth=1;fillColor=none;align=left;verticalAlign=middle;spacingTop=-1;spacingLeft=3;spacingRight=3;rotatable=0;labelPosition=right;points=[];portConstraint=eastwest;strokeColor=inherit;" vertex="1" parent="8GcMY4ZnjwPO1-FeVbG_-5">
          <mxGeometry y="90" width="160" height="8" as="geometry" />
        </mxCell>
        <mxCell id="8GcMY4ZnjwPO1-FeVbG_-8" value="+ consultation()" style="text;strokeColor=none;fillColor=none;align=left;verticalAlign=top;spacingLeft=4;spacingRight=4;overflow=hidden;rotatable=0;points=[[0,0.5],[1,0.5]];portConstraint=eastwest;whiteSpace=wrap;html=1;" vertex="1" parent="8GcMY4ZnjwPO1-FeVbG_-5">
          <mxGeometry y="98" width="160" height="32" as="geometry" />
        </mxCell>
        <mxCell id="8GcMY4ZnjwPO1-FeVbG_-9" value="BankAccount" style="swimlane;fontStyle=1;align=center;verticalAlign=top;childLayout=stackLayout;horizontal=1;startSize=26;horizontalStack=0;resizeParent=1;resizeParentMax=0;resizeLast=0;collapsible=1;marginBottom=0;whiteSpace=wrap;html=1;" vertex="1" parent="1">
          <mxGeometry x="480" y="10" width="290" height="160" as="geometry" />
        </mxCell>
        <mxCell id="8GcMY4ZnjwPO1-FeVbG_-10" value="&lt;div&gt;+ bankAccountId int&lt;/div&gt;+ accountType /cc/ce String&lt;div&gt;+ balance double&lt;/div&gt;&lt;div&gt;+ ownerCustomer Customer&lt;/div&gt;" style="text;strokeColor=none;fillColor=none;align=left;verticalAlign=top;spacingLeft=4;spacingRight=4;overflow=hidden;rotatable=0;points=[[0,0.5],[1,0.5]];portConstraint=eastwest;whiteSpace=wrap;html=1;" vertex="1" parent="8GcMY4ZnjwPO1-FeVbG_-9">
          <mxGeometry y="26" width="290" height="74" as="geometry" />
        </mxCell>
        <mxCell id="8GcMY4ZnjwPO1-FeVbG_-11" value="" style="line;strokeWidth=1;fillColor=none;align=left;verticalAlign=middle;spacingTop=-1;spacingLeft=3;spacingRight=3;rotatable=0;labelPosition=right;points=[];portConstraint=eastwest;strokeColor=inherit;" vertex="1" parent="8GcMY4ZnjwPO1-FeVbG_-9">
          <mxGeometry y="100" width="290" height="8" as="geometry" />
        </mxCell>
        <mxCell id="8GcMY4ZnjwPO1-FeVbG_-12" value="+ createCurrentAccount() / decouvert autorisÃ©&lt;div&gt;+ createSavingAccount() / taux d&#39;interet&lt;/div&gt;" style="text;strokeColor=none;fillColor=none;align=left;verticalAlign=top;spacingLeft=4;spacingRight=4;overflow=hidden;rotatable=0;points=[[0,0.5],[1,0.5]];portConstraint=eastwest;whiteSpace=wrap;html=1;" vertex="1" parent="8GcMY4ZnjwPO1-FeVbG_-9">
          <mxGeometry y="108" width="290" height="52" as="geometry" />
        </mxCell>
        <mxCell id="8GcMY4ZnjwPO1-FeVbG_-13" value="Admin&lt;div&gt;&lt;br&gt;&lt;/div&gt;" style="swimlane;fontStyle=1;align=center;verticalAlign=top;childLayout=stackLayout;horizontal=1;startSize=26;horizontalStack=0;resizeParent=1;resizeParentMax=0;resizeLast=0;collapsible=1;marginBottom=0;whiteSpace=wrap;html=1;" vertex="1" parent="1">
          <mxGeometry x="20" y="280" width="180" height="190" as="geometry" />
        </mxCell>
        <mxCell id="8GcMY4ZnjwPO1-FeVbG_-14" value="+ adminId int&lt;div&gt;+ firstname string&lt;/div&gt;&lt;div&gt;+ lastname string&lt;/div&gt;&lt;div&gt;+ email string&lt;/div&gt;&lt;div&gt;+ listCustomers list&lt;/div&gt;" style="text;strokeColor=none;fillColor=none;align=left;verticalAlign=top;spacingLeft=4;spacingRight=4;overflow=hidden;rotatable=0;points=[[0,0.5],[1,0.5]];portConstraint=eastwest;whiteSpace=wrap;html=1;" vertex="1" parent="8GcMY4ZnjwPO1-FeVbG_-13">
          <mxGeometry y="26" width="180" height="94" as="geometry" />
        </mxCell>
        <mxCell id="8GcMY4ZnjwPO1-FeVbG_-15" value="" style="line;strokeWidth=1;fillColor=none;align=left;verticalAlign=middle;spacingTop=-1;spacingLeft=3;spacingRight=3;rotatable=0;labelPosition=right;points=[];portConstraint=eastwest;strokeColor=inherit;" vertex="1" parent="8GcMY4ZnjwPO1-FeVbG_-13">
          <mxGeometry y="120" width="180" height="8" as="geometry" />
        </mxCell>
        <mxCell id="8GcMY4ZnjwPO1-FeVbG_-16" value="+ createCustomers()&lt;div&gt;+ createBankAccount()&lt;/div&gt;&lt;div&gt;+ consultatio()&lt;/div&gt;" style="text;strokeColor=none;fillColor=none;align=left;verticalAlign=top;spacingLeft=4;spacingRight=4;overflow=hidden;rotatable=0;points=[[0,0.5],[1,0.5]];portConstraint=eastwest;whiteSpace=wrap;html=1;" vertex="1" parent="8GcMY4ZnjwPO1-FeVbG_-13">
          <mxGeometry y="128" width="180" height="62" as="geometry" />
        </mxCell>
        <mxCell id="8GcMY4ZnjwPO1-FeVbG_-20" value="&lt;font style=&quot;font-size: 14px;&quot;&gt;1&lt;/font&gt;" style="text;strokeColor=none;align=center;fillColor=none;html=1;verticalAlign=middle;whiteSpace=wrap;rounded=0;" vertex="1" parent="1">
          <mxGeometry x="250" y="360" width="60" height="30" as="geometry" />
        </mxCell>
        <mxCell id="8GcMY4ZnjwPO1-FeVbG_-27" value="Banks" style="swimlane;fontStyle=1;align=center;verticalAlign=top;childLayout=stackLayout;horizontal=1;startSize=26;horizontalStack=0;resizeParent=1;resizeParentMax=0;resizeLast=0;collapsible=1;marginBottom=0;whiteSpace=wrap;html=1;" vertex="1" parent="1">
          <mxGeometry x="290" y="280" width="160" height="130" as="geometry" />
        </mxCell>
        <mxCell id="8GcMY4ZnjwPO1-FeVbG_-28" value="+ bankId: int&lt;div&gt;+ bankName: string&lt;/div&gt;&lt;div&gt;+ listAccountBank list&lt;/div&gt;" style="text;strokeColor=none;fillColor=none;align=left;verticalAlign=top;spacingLeft=4;spacingRight=4;overflow=hidden;rotatable=0;points=[[0,0.5],[1,0.5]];portConstraint=eastwest;whiteSpace=wrap;html=1;" vertex="1" parent="8GcMY4ZnjwPO1-FeVbG_-27">
          <mxGeometry y="26" width="160" height="64" as="geometry" />
        </mxCell>
        <mxCell id="8GcMY4ZnjwPO1-FeVbG_-29" value="" style="line;strokeWidth=1;fillColor=none;align=left;verticalAlign=middle;spacingTop=-1;spacingLeft=3;spacingRight=3;rotatable=0;labelPosition=right;points=[];portConstraint=eastwest;strokeColor=inherit;" vertex="1" parent="8GcMY4ZnjwPO1-FeVbG_-27">
          <mxGeometry y="90" width="160" height="8" as="geometry" />
        </mxCell>
        <mxCell id="8GcMY4ZnjwPO1-FeVbG_-30" value="+ consultation()" style="text;strokeColor=none;fillColor=none;align=left;verticalAlign=top;spacingLeft=4;spacingRight=4;overflow=hidden;rotatable=0;points=[[0,0.5],[1,0.5]];portConstraint=eastwest;whiteSpace=wrap;html=1;" vertex="1" parent="8GcMY4ZnjwPO1-FeVbG_-27">
          <mxGeometry y="98" width="160" height="32" as="geometry" />
        </mxCell>
        <mxCell id="8GcMY4ZnjwPO1-FeVbG_-36" value="&lt;font style=&quot;font-size: 14px;&quot;&gt;0...n&lt;/font&gt;" style="text;strokeColor=none;align=center;fillColor=none;html=1;verticalAlign=middle;whiteSpace=wrap;rounded=0;" vertex="1" parent="1">
          <mxGeometry x="190" y="340" width="60" height="30" as="geometry" />
        </mxCell>
        <mxCell id="8GcMY4ZnjwPO1-FeVbG_-38" value="&lt;font style=&quot;font-size: 14px;&quot;&gt;1&lt;/font&gt;" style="text;strokeColor=none;align=center;fillColor=none;html=1;verticalAlign=middle;whiteSpace=wrap;rounded=0;" vertex="1" parent="1">
          <mxGeometry x="280" y="250" width="60" height="30" as="geometry" />
        </mxCell>
        <mxCell id="8GcMY4ZnjwPO1-FeVbG_-39" value="&lt;font style=&quot;font-size: 14px;&quot;&gt;0...n&lt;/font&gt;" style="text;strokeColor=none;align=center;fillColor=none;html=1;verticalAlign=middle;whiteSpace=wrap;rounded=0;" vertex="1" parent="1">
          <mxGeometry x="560" y="300" width="60" height="30" as="geometry" />
        </mxCell>
        <mxCell id="8GcMY4ZnjwPO1-FeVbG_-43" value="SavingAccount" style="swimlane;fontStyle=1;align=center;verticalAlign=top;childLayout=stackLayout;horizontal=1;startSize=26;horizontalStack=0;resizeParent=1;resizeParentMax=0;resizeLast=0;collapsible=1;marginBottom=0;whiteSpace=wrap;html=1;" vertex="1" parent="1">
          <mxGeometry x="460" y="210" width="160" height="60" as="geometry" />
        </mxCell>
        <mxCell id="8GcMY4ZnjwPO1-FeVbG_-44" value="+ interestedRate double" style="text;strokeColor=none;fillColor=none;align=left;verticalAlign=top;spacingLeft=4;spacingRight=4;overflow=hidden;rotatable=0;points=[[0,0.5],[1,0.5]];portConstraint=eastwest;whiteSpace=wrap;html=1;" vertex="1" parent="8GcMY4ZnjwPO1-FeVbG_-43">
          <mxGeometry y="26" width="160" height="26" as="geometry" />
        </mxCell>
        <mxCell id="8GcMY4ZnjwPO1-FeVbG_-45" value="" style="line;strokeWidth=1;fillColor=none;align=left;verticalAlign=middle;spacingTop=-1;spacingLeft=3;spacingRight=3;rotatable=0;labelPosition=right;points=[];portConstraint=eastwest;strokeColor=inherit;" vertex="1" parent="8GcMY4ZnjwPO1-FeVbG_-43">
          <mxGeometry y="52" width="160" height="8" as="geometry" />
        </mxCell>
        <mxCell id="8GcMY4ZnjwPO1-FeVbG_-51" value="" style="endArrow=none;html=1;rounded=0;entryX=-0.006;entryY=0.925;entryDx=0;entryDy=0;strokeColor=default;entryPerimeter=0;exitX=1.002;exitY=0.64;exitDx=0;exitDy=0;exitPerimeter=0;" edge="1" parent="1" source="8GcMY4ZnjwPO1-FeVbG_-14" target="8GcMY4ZnjwPO1-FeVbG_-28">
          <mxGeometry width="50" height="50" relative="1" as="geometry">
            <mxPoint x="200" y="400" as="sourcePoint" />
            <mxPoint x="260" y="416" as="targetPoint" />
          </mxGeometry>
        </mxCell>
        <mxCell id="8GcMY4ZnjwPO1-FeVbG_-56" value="" style="endArrow=none;html=1;rounded=0;strokeColor=default;exitX=-0.004;exitY=0.645;exitDx=0;exitDy=0;entryX=0.981;entryY=0.643;entryDx=0;entryDy=0;entryPerimeter=0;exitPerimeter=0;" edge="1" parent="1" source="8GcMY4ZnjwPO1-FeVbG_-10" target="8GcMY4ZnjwPO1-FeVbG_-6">
          <mxGeometry width="50" height="50" relative="1" as="geometry">
            <mxPoint x="228" y="108.5" as="sourcePoint" />
            <mxPoint x="160" y="71.5" as="targetPoint" />
          </mxGeometry>
        </mxCell>
        <mxCell id="8GcMY4ZnjwPO1-FeVbG_-57" value="" style="endArrow=none;html=1;rounded=0;entryX=0.823;entryY=1.067;entryDx=0;entryDy=0;strokeColor=default;entryPerimeter=0;exitX=0.057;exitY=0.011;exitDx=0;exitDy=0;exitPerimeter=0;" edge="1" parent="1" source="8GcMY4ZnjwPO1-FeVbG_-27" target="8GcMY4ZnjwPO1-FeVbG_-8">
          <mxGeometry width="50" height="50" relative="1" as="geometry">
            <mxPoint x="167" y="258" as="sourcePoint" />
            <mxPoint x="160" y="150" as="targetPoint" />
          </mxGeometry>
        </mxCell>
        <mxCell id="8GcMY4ZnjwPO1-FeVbG_-59" value="&lt;font style=&quot;font-size: 12px;&quot;&gt;1&lt;/font&gt;" style="text;strokeColor=none;align=center;fillColor=none;html=1;verticalAlign=middle;whiteSpace=wrap;rounded=0;" vertex="1" parent="1">
          <mxGeometry x="140" y="60" width="60" height="30" as="geometry" />
        </mxCell>
        <mxCell id="8GcMY4ZnjwPO1-FeVbG_-60" value="&lt;font style=&quot;font-size: 10px;&quot;&gt;0...n&lt;/font&gt;" style="text;strokeColor=none;align=center;fillColor=none;html=1;verticalAlign=middle;whiteSpace=wrap;rounded=0;" vertex="1" parent="1">
          <mxGeometry x="170" y="75" width="60" height="30" as="geometry" />
        </mxCell>
        <mxCell id="8GcMY4ZnjwPO1-FeVbG_-47" value="CurrentAccount" style="swimlane;fontStyle=1;align=center;verticalAlign=top;childLayout=stackLayout;horizontal=1;startSize=26;horizontalStack=0;resizeParent=1;resizeParentMax=0;resizeLast=0;collapsible=1;marginBottom=0;whiteSpace=wrap;html=1;" vertex="1" parent="1">
          <mxGeometry x="650" y="210" width="160" height="60" as="geometry" />
        </mxCell>
        <mxCell id="8GcMY4ZnjwPO1-FeVbG_-48" value="+ overDraft int" style="text;strokeColor=none;fillColor=none;align=left;verticalAlign=top;spacingLeft=4;spacingRight=4;overflow=hidden;rotatable=0;points=[[0,0.5],[1,0.5]];portConstraint=eastwest;whiteSpace=wrap;html=1;" vertex="1" parent="8GcMY4ZnjwPO1-FeVbG_-47">
          <mxGeometry y="26" width="160" height="26" as="geometry" />
        </mxCell>
        <mxCell id="8GcMY4ZnjwPO1-FeVbG_-49" value="" style="line;strokeWidth=1;fillColor=none;align=left;verticalAlign=middle;spacingTop=-1;spacingLeft=3;spacingRight=3;rotatable=0;labelPosition=right;points=[];portConstraint=eastwest;strokeColor=inherit;" vertex="1" parent="8GcMY4ZnjwPO1-FeVbG_-47">
          <mxGeometry y="52" width="160" height="8" as="geometry" />
        </mxCell>
        <mxCell id="8GcMY4ZnjwPO1-FeVbG_-71" value="" style="endArrow=none;html=1;rounded=0;strokeColor=default;exitX=0.152;exitY=0.986;exitDx=0;exitDy=0;exitPerimeter=0;entryX=0.335;entryY=0.063;entryDx=0;entryDy=0;entryPerimeter=0;" edge="1" parent="1" source="8GcMY4ZnjwPO1-FeVbG_-12" target="8GcMY4ZnjwPO1-FeVbG_-43">
          <mxGeometry width="50" height="50" relative="1" as="geometry">
            <mxPoint x="506" y="187" as="sourcePoint" />
            <mxPoint x="520" y="200" as="targetPoint" />
          </mxGeometry>
        </mxCell>
        <mxCell id="8GcMY4ZnjwPO1-FeVbG_-72" value="" style="endArrow=none;html=1;rounded=0;strokeColor=default;exitX=0.438;exitY=0;exitDx=0;exitDy=0;entryX=0.81;entryY=1.039;entryDx=0;entryDy=0;entryPerimeter=0;exitPerimeter=0;" edge="1" parent="1" source="8GcMY4ZnjwPO1-FeVbG_-47" target="8GcMY4ZnjwPO1-FeVbG_-12">
          <mxGeometry width="50" height="50" relative="1" as="geometry">
            <mxPoint x="822" y="177" as="sourcePoint" />
            <mxPoint x="670" y="170" as="targetPoint" />
          </mxGeometry>
        </mxCell>
        <mxCell id="8GcMY4ZnjwPO1-FeVbG_-73" value="" style="endArrow=none;html=1;rounded=0;strokeColor=default;exitX=0.729;exitY=1.105;exitDx=0;exitDy=0;exitPerimeter=0;entryX=0.155;entryY=0.004;entryDx=0;entryDy=0;entryPerimeter=0;" edge="1" parent="1" source="8GcMY4ZnjwPO1-FeVbG_-44" target="8GcMY4ZnjwPO1-FeVbG_-1">
          <mxGeometry width="50" height="50" relative="1" as="geometry">
            <mxPoint x="570" y="270" as="sourcePoint" />
            <mxPoint x="570" y="315" as="targetPoint" />
          </mxGeometry>
        </mxCell>
        <mxCell id="8GcMY4ZnjwPO1-FeVbG_-74" value="" style="endArrow=none;html=1;rounded=0;strokeColor=default;exitX=0.594;exitY=0.658;exitDx=0;exitDy=0;entryX=0.904;entryY=-0.013;entryDx=0;entryDy=0;entryPerimeter=0;exitPerimeter=0;" edge="1" parent="1" source="8GcMY4ZnjwPO1-FeVbG_-49" target="8GcMY4ZnjwPO1-FeVbG_-1">
          <mxGeometry width="50" height="50" relative="1" as="geometry">
            <mxPoint x="710" y="270" as="sourcePoint" />
            <mxPoint x="710" y="315" as="targetPoint" />
          </mxGeometry>
        </mxCell>
        <mxCell id="8GcMY4ZnjwPO1-FeVbG_-75" value="&lt;font style=&quot;font-size: 14px;&quot;&gt;1...n&lt;/font&gt;" style="text;strokeColor=none;align=center;fillColor=none;html=1;verticalAlign=middle;whiteSpace=wrap;rounded=0;" vertex="1" parent="1">
          <mxGeometry x="240" y="140" width="60" height="30" as="geometry" />
        </mxCell>
        <mxCell id="8GcMY4ZnjwPO1-FeVbG_-76" value="&lt;font style=&quot;font-size: 14px;&quot;&gt;1&lt;/font&gt;" style="text;strokeColor=none;align=center;fillColor=none;html=1;verticalAlign=middle;whiteSpace=wrap;rounded=0;" vertex="1" parent="1">
          <mxGeometry x="310" y="45" width="60" height="30" as="geometry" />
        </mxCell>
        <mxCell id="8GcMY4ZnjwPO1-FeVbG_-77" value="&lt;font style=&quot;font-size: 14px;&quot;&gt;0...n&lt;/font&gt;" style="text;strokeColor=none;align=center;fillColor=none;html=1;verticalAlign=middle;whiteSpace=wrap;rounded=0;" vertex="1" parent="1">
          <mxGeometry x="430" y="75" width="60" height="30" as="geometry" />
        </mxCell>
        <mxCell id="8GcMY4ZnjwPO1-FeVbG_-81" value="" style="endArrow=none;html=1;rounded=0;strokeColor=default;exitX=0.652;exitY=0.992;exitDx=0;exitDy=0;exitPerimeter=0;entryX=0.155;entryY=0.004;entryDx=0;entryDy=0;entryPerimeter=0;" edge="1" parent="1" source="8GcMY4ZnjwPO1-FeVbG_-44" target="8GcMY4ZnjwPO1-FeVbG_-80">
          <mxGeometry width="50" height="50" relative="1" as="geometry">
            <mxPoint x="564" y="262" as="sourcePoint" />
            <mxPoint x="576" y="331" as="targetPoint" />
          </mxGeometry>
        </mxCell>
        <mxCell id="8GcMY4ZnjwPO1-FeVbG_-80" value="&lt;font style=&quot;font-size: 14px;&quot;&gt;1&lt;/font&gt;" style="text;strokeColor=none;align=center;fillColor=none;html=1;verticalAlign=middle;whiteSpace=wrap;rounded=0;" vertex="1" parent="1">
          <mxGeometry x="530" y="262" width="60" height="30" as="geometry" />
        </mxCell>
        <mxCell id="8GcMY4ZnjwPO1-FeVbG_-82" value="" style="endArrow=none;html=1;rounded=0;strokeColor=default;exitX=0.152;exitY=0.986;exitDx=0;exitDy=0;exitPerimeter=0;entryX=0.904;entryY=-0.013;entryDx=0;entryDy=0;entryPerimeter=0;" edge="1" parent="1" target="8GcMY4ZnjwPO1-FeVbG_-79">
          <mxGeometry width="50" height="50" relative="1" as="geometry">
            <mxPoint x="710" y="270" as="sourcePoint" />
            <mxPoint x="704" y="328" as="targetPoint" />
          </mxGeometry>
        </mxCell>
        <mxCell id="8GcMY4ZnjwPO1-FeVbG_-79" value="&lt;font style=&quot;font-size: 14px;&quot;&gt;1&lt;/font&gt;" style="text;strokeColor=none;align=center;fillColor=none;html=1;verticalAlign=middle;whiteSpace=wrap;rounded=0;" vertex="1" parent="1">
          <mxGeometry x="690" y="262" width="60" height="30" as="geometry" />
        </mxCell>
        <mxCell id="8GcMY4ZnjwPO1-FeVbG_-83" value="&lt;font style=&quot;font-size: 14px;&quot;&gt;0...n&lt;/font&gt;" style="text;strokeColor=none;align=center;fillColor=none;html=1;verticalAlign=middle;whiteSpace=wrap;rounded=0;" vertex="1" parent="1">
          <mxGeometry x="700" y="300" width="60" height="30" as="geometry" />
        </mxCell>
      </root>
    </mxGraphModel>
  </diagram>
</mxfile>
